<svg width="16" height="16" viewBox="0 0 16 16" fill="none" xmlns="http://www.w3.org/2000/svg">
<path d="M15.1889 16C15.0209 15.875 14.8335 15.7695 14.6851 15.6211C13.2714 14.2148 11.8616 12.8047 10.4556 11.3945C10.4127 11.3516 10.3853 11.293 10.3463 11.2383C10.2565 11.3047 10.1979 11.3398 10.1471 11.3789C9.33092 12.0039 8.41317 12.4102 7.3978 12.5703C5.39438 12.8867 3.62138 12.375 2.10612 11.0273C0.985301 10.0312 0.309684 8.77344 0.0792719 7.29297C-0.151141 5.81641 0.12223 4.42578 0.879858 3.13672C1.58281 1.94141 2.57866 1.07031 3.84788 0.515625C4.46492 0.246094 5.1132 0.078125 5.78882 0.0273438C5.82787 0.0234375 5.86692 0.0078125 5.90597 0C6.18716 0 6.46834 0 6.74952 0C6.92916 0.0234375 7.10881 0.0429688 7.28845 0.0703125C8.76465 0.320312 10.0261 0.976562 11.0258 2.09766C12.3731 3.61328 12.8886 5.38672 12.5723 7.39062C12.4161 8.38281 12.0178 9.28125 11.4203 10.0898C11.3695 10.1602 11.3148 10.2305 11.2406 10.332C11.2953 10.375 11.35 10.4062 11.3929 10.4492C12.7988 11.8555 14.2086 13.2578 15.6106 14.6719C15.759 14.8242 15.8723 15.0117 16.0012 15.1875C16.0012 15.2812 16.0012 15.375 16.0012 15.4688C15.9113 15.7344 15.7356 15.9102 15.47 16C15.3763 16 15.2826 16 15.1889 16ZM11.3343 6.33203C11.3343 3.58203 9.08489 1.33594 6.33556 1.33594C3.58232 1.33594 1.33678 3.58203 1.34068 6.33203C1.34459 9.07422 3.54718 11.3203 6.33556 11.3281C9.08489 11.3398 11.3343 9.07812 11.3343 6.33203Z" fill="#41A8F5"/>
</svg>
